<?xml version="1.0" encoding="iso-8859-1"?>
<!-- Generator: Adobe Illustrator 19.0.0, SVG Export Plug-In . SVG Version: 6.00 Build 0)  -->
<svg version="1.1" id="Capa_1" xmlns="http://www.w3.org/2000/svg" xmlns:xlink="http://www.w3.org/1999/xlink" x="0px" y="0px"
	 viewBox="0 0 512 512" style="enable-background:new 0 0 512 512;" xml:space="preserve">
<g>
	<g>
		<g>
			<path d="M448.389,0H63.611c-5.21,0-9.421,4.217-9.421,9.421v493.158c0,5.204,4.217,9.421,9.421,9.421h384.779
				c5.21,0,9.421-4.217,9.421-9.421V9.421C457.81,4.217,453.599,0,448.389,0z M73.037,18.848h365.931v147.627H73.037V18.848z
				 M73.037,185.322h365.931v141.35H73.037V185.322z M438.968,493.158H73.037V345.52h365.931V493.158z"/>
			<path d="M296.747,92.676h-81.495c-15.092,0-27.369,13.384-27.369,29.832c0,16.448,12.277,29.832,27.369,29.832h81.495
				c15.092,0,27.369-13.384,27.369-29.832C324.116,106.06,311.84,92.676,296.747,92.676z M296.747,133.498h-81.495
				c-4.621,0-8.521-5.036-8.521-10.99c0-5.96,3.9-10.99,8.521-10.99h81.495c4.621,0,8.521,5.036,8.521,10.99
				C305.269,128.462,301.369,133.498,296.747,133.498z"/>
			<path d="M296.747,252.665h-81.495c-15.092,0-27.369,13.384-27.369,29.832c0,16.459,12.277,29.855,27.369,29.855h81.495
				c15.092,0,27.369-13.396,27.369-29.855C324.116,266.05,311.84,252.665,296.747,252.665z M296.747,293.511h-81.495
				c-4.621,0-8.521-5.036-8.521-11.008c0-5.959,3.9-10.99,8.521-10.99h81.495c4.621,0,8.521,5.036,8.521,10.99
				C305.269,288.469,301.369,293.511,296.747,293.511z"/>
			<path d="M215.253,472.349h81.495c15.092,0,27.369-13.39,27.369-29.844c0-16.454-12.277-29.844-27.369-29.844h-81.495
				c-15.092,0-27.369,13.39-27.369,29.844C187.884,458.958,200.16,472.349,215.253,472.349z M215.253,431.509h81.495
				c4.621,0,8.521,5.036,8.521,10.996c0.006,5.96-3.9,10.996-8.521,10.996h-81.495c-4.621,0-8.521-5.036-8.521-10.996
				C206.732,436.54,210.631,431.509,215.253,431.509z"/>
		</g>
	</g>
</g>
<g>
</g>
<g>
</g>
<g>
</g>
<g>
</g>
<g>
</g>
<g>
</g>
<g>
</g>
<g>
</g>
<g>
</g>
<g>
</g>
<g>
</g>
<g>
</g>
<g>
</g>
<g>
</g>
<g>
</g>
</svg>
