<?xml version="1.0" encoding="iso-8859-1"?>
<!-- Generator: Adobe Illustrator 19.0.0, SVG Export Plug-In . SVG Version: 6.00 Build 0)  -->
<svg version="1.1" id="Capa_1" xmlns="http://www.w3.org/2000/svg" xmlns:xlink="http://www.w3.org/1999/xlink" x="0px" y="0px"
	 viewBox="0 0 511.994 511.994" style="enable-background:new 0 0 511.994 511.994;" xml:space="preserve">
<g>
	<g>
		<g>
			<path d="M434.181,0H77.814c-5.016,0-9.082,4.065-9.082,9.082v493.831c0,5.016,4.065,9.082,9.082,9.082h356.367
				c5.016,0,9.082-4.065,9.082-9.082V9.082C443.262,4.065,439.197,0,434.181,0z M142.547,493.831H86.901V18.169h55.646V493.831z
				 M425.099,493.831H160.716V18.169h264.384V493.831z"/>
			<path d="M193.638,294.359h201.085c5.016,0,9.082-4.065,9.082-9.082V147.819c0-5.016-4.065-9.082-9.082-9.082H193.638
				c-5.016,0-9.082,4.065-9.082,9.082v137.458C184.551,290.288,188.622,294.359,193.638,294.359z M202.72,156.901h182.922v119.29
				H202.72V156.901z"/>
			<path d="M311.999,166.733h-89.092c-5.016,0-9.082,4.065-9.082,9.082s4.065,9.082,9.082,9.082h89.092
				c5.016,0,9.082-4.065,9.082-9.082C321.087,170.798,317.016,166.733,311.999,166.733z"/>
			<path d="M311.999,199.828h-89.092c-5.016,0-9.082,4.065-9.082,9.082s4.065,9.082,9.082,9.082h89.092
				c5.016,0,9.082-4.065,9.082-9.082C321.087,203.893,317.016,199.828,311.999,199.828z"/>
		</g>
	</g>
</g>
</svg>
