<?xml version="1.0" encoding="iso-8859-1"?>
<!-- Generator: Adobe Illustrator 19.0.0, SVG Export Plug-In . SVG Version: 6.00 Build 0)  -->
<svg version="1.1" id="Capa_1" xmlns="http://www.w3.org/2000/svg" xmlns:xlink="http://www.w3.org/1999/xlink" x="0px" y="0px"
	 viewBox="0 0 511.995 511.995" style="enable-background:new 0 0 511.995 511.995;" xml:space="preserve">
<g>
	<g>
		<g>
			<path d="M181.676,62.056C181.676,27.834,153.836,0,119.614,0C85.404,0,57.569,27.834,57.569,62.056v332.34
				c0,31.181,23.132,56.981,53.115,61.334v47.335c0,4.938,3.997,8.93,8.93,8.93c4.938,0,8.93-3.997,8.93-8.93V455.73
				c29.995-4.353,53.131-30.158,53.131-61.34V88.693h20.261v145.062h17.865V70.827h-38.126V62.056z M163.816,394.396
				c0,24.362-19.829,44.191-44.201,44.191c-24.362,0-44.18-19.829-44.18-44.191V88.693h88.381V394.396z M163.816,70.833H75.435
				v-8.777c0-24.362,19.818-44.191,44.18-44.191c24.373,0,44.201,19.829,44.201,44.191V70.833z"/>
			<path d="M454.409,53.864c0.016-14.513-5.879-28.146-16.619-38.361C427.307,5.507,413.412,0,398.669,0
				c-15.246,0-29.486,5.835-40.089,16.433c-10.084,10.084-15.64,23.378-15.64,37.421V396.02c0,3.325,0.984,6.507,2.833,9.192
				l39.526,57.78c1.192,1.712,2.745,3.057,4.44,4.178v32.718c0,4.938,3.992,8.93,8.93,8.93c4.938,0,8.93-3.997,8.93-8.93v-32.592
				c0.935-0.618,1.826-1.323,2.658-2.144c0.673-0.689,1.291-1.427,1.843-2.231l39.499-57.719c1.848-2.723,2.827-5.879,2.827-9.132
				L454.409,53.864z M389.739,89.322v348.521l-28.934-42.293V88.693h29.059C389.849,88.911,389.739,89.097,389.739,89.322z
				 M360.806,70.827V53.853c0-9.269,3.697-18.079,10.401-24.788c7.229-7.224,16.985-11.199,27.463-11.199
				c10.128,0,19.654,3.751,26.806,10.57c7.153,6.803,11.085,15.831,11.068,25.417v16.974H360.806z M407.599,437.908V89.322
				c0-0.224-0.109-0.41-0.126-0.629h29.07l0.016,306.857L407.599,437.908z"/>
		</g>
	</g>
</g>
<g>
</g>
<g>
</g>
<g>
</g>
<g>
</g>
<g>
</g>
<g>
</g>
<g>
</g>
<g>
</g>
<g>
</g>
<g>
</g>
<g>
</g>
<g>
</g>
<g>
</g>
<g>
</g>
<g>
</g>
</svg>
