<?xml version="1.0" encoding="iso-8859-1"?>
<!-- Generator: Adobe Illustrator 19.0.0, SVG Export Plug-In . SVG Version: 6.00 Build 0)  -->
<svg version="1.1" id="Capa_1" xmlns="http://www.w3.org/2000/svg" xmlns:xlink="http://www.w3.org/1999/xlink" x="0px" y="0px"
	 viewBox="0 0 511.995 511.995" style="enable-background:new 0 0 511.995 511.995;" xml:space="preserve">
  <defs>
    <style>
      .cls-1 {
        fill-rule: evenodd;
        opacity: 0.4;
      }
    </style>
  </defs>
		<g class="cls-1">
			<path d="M230.393,0H73.959c-4.717,0-8.531,3.819-8.531,8.531v494.933c0,4.712,3.819,8.531,8.531,8.531h156.434
				c4.717,0,8.531-3.819,8.531-8.531V8.531C238.925,3.819,235.106,0,230.393,0z M221.857,494.932H82.49V17.068h139.367V494.932z"/>
			<path d="M98.842,300.085H205.51c4.717,0,8.531-3.819,8.531-8.531v-170.67c0-4.712-3.819-8.531-8.531-8.531H98.842
				c-4.717,0-8.531,3.819-8.531,8.531v170.665C90.306,296.26,94.125,300.085,98.842,300.085z M107.373,129.414h89.601v153.597
				h-89.601V129.414z"/>
			<path d="M152.176,451.551c34.119,0,61.865-27.751,61.865-61.865c0-34.114-27.751-61.865-61.865-61.865
				c-34.114,0-61.865,27.756-61.865,61.865C90.306,423.794,118.057,451.551,152.176,451.551z M152.176,344.882
				c24.7,0,44.798,20.098,44.798,44.798c0,24.705-20.103,44.798-44.798,44.798c-24.7,0-44.798-20.098-44.798-44.798
				C107.373,364.98,127.476,344.882,152.176,344.882z"/>
			<path d="M180.622,231.814h-56.897c-4.717,0-8.531,3.819-8.531,8.531c0,4.712,3.819,8.531,8.531,8.531h56.902
				c4.717,0,8.531-3.819,8.531-8.531C189.159,235.639,185.34,231.814,180.622,231.814z"/>
			<path d="M98.842,85.332H205.51c4.717,0,8.531-3.819,8.531-8.531c0-4.712-3.819-8.531-8.531-8.531H98.842
				c-4.717,0-8.531,3.819-8.531,8.531C90.311,81.514,94.125,85.332,98.842,85.332z"/>
			<path d="M98.842,51.197H205.51c4.717,0,8.531-3.819,8.531-8.531c0-4.712-3.819-8.531-8.531-8.531H98.842
				c-4.717,0-8.531,3.819-8.531,8.531C90.311,47.378,94.125,51.197,98.842,51.197z"/>
			<path d="M438.041,0H281.601c-4.717,0-8.536,3.819-8.536,8.531v494.933c0,4.712,3.819,8.531,8.531,8.531h156.439
				c4.717,0,8.531-3.819,8.531-8.531V8.531C446.577,3.819,442.758,0,438.041,0z M429.51,494.932H290.133V17.068H429.51V494.932z"/>
			<path d="M306.49,300.085h106.668c4.717,0,8.531-3.819,8.531-8.531v-170.67c0-4.712-3.819-8.531-8.531-8.531H306.49
				c-4.717,0-8.531,3.819-8.531,8.531v170.665C297.958,296.26,301.777,300.085,306.49,300.085z M315.026,129.414h89.601v153.597
				h-89.601V129.414z"/>
			<path d="M359.824,451.551c34.114,0,61.865-27.751,61.865-61.865c0-34.114-27.751-61.865-61.865-61.865
				c-34.119,0-61.865,27.756-61.865,61.865C297.958,423.794,325.709,451.551,359.824,451.551z M359.824,344.882
				c24.7,0,44.798,20.098,44.798,44.798c0,24.705-20.103,44.798-44.798,44.798c-24.7,0-44.798-20.098-44.798-44.798
				C315.026,364.98,335.124,344.882,359.824,344.882z"/>
			<path d="M388.264,231.814h-56.892c-4.717,0-8.531,3.819-8.531,8.531c0,4.712,3.819,8.531,8.531,8.531h56.892
				c4.717,0,8.531-3.819,8.531-8.531C396.801,235.639,392.982,231.814,388.264,231.814z"/>
			<path d="M306.49,85.332h106.668c4.717,0,8.531-3.819,8.531-8.531c0-4.712-3.819-8.531-8.531-8.531H306.49
				c-4.717,0-8.531,3.819-8.531,8.531C297.958,81.514,301.777,85.332,306.49,85.332z"/>
			<path d="M306.49,51.197h106.668c4.717,0,8.531-3.819,8.531-8.531c0-4.712-3.819-8.531-8.531-8.531H306.49
				c-4.717,0-8.531,3.819-8.531,8.531C297.958,47.378,301.777,51.197,306.49,51.197z"/>
		</g>
</svg>
