<?xml version="1.0" encoding="iso-8859-1"?>
<!-- Generator: Adobe Illustrator 19.0.0, SVG Export Plug-In . SVG Version: 6.00 Build 0)  -->
<svg version="1.1" id="Capa_1" xmlns="http://www.w3.org/2000/svg" xmlns:xlink="http://www.w3.org/1999/xlink" x="0px" y="0px"
	 viewBox="0 0 512 512" style="enable-background:new 0 0 512 512;" xml:space="preserve">
  <defs>
    <style>
      .cls-1 {
        fill-rule: evenodd;
        opacity: 0.4;
      }
    </style>
  </defs>
		<g class="cls-1">
			<path d="M503.166,68.943H8.834C3.955,68.943,0,72.892,0,77.778v356.445c0,4.885,3.955,8.834,8.834,8.834h494.331
				c4.885,0,8.834-3.949,8.834-8.834V77.778C512,72.892,508.051,68.943,503.166,68.943z M494.331,425.388H17.674V86.612h476.657
				V425.388z"/>
			<path d="M51.199,406.075h409.629c4.885,0,8.834-3.955,8.834-8.834V114.765c0-4.885-3.955-8.834-8.834-8.834H51.199
				c-4.885,0-8.834,3.955-8.834,8.834v282.476C42.359,402.126,46.314,406.075,51.199,406.075z M60.033,123.599h391.961v264.802
				H60.033V123.599z"/>
			<path d="M156.372,147.954H87.018c-4.885,0-8.834,3.949-8.834,8.834v69.365c0,4.885,3.949,8.834,8.834,8.834h69.354
				c4.885,0,8.834-3.955,8.834-8.834v-69.365C165.212,151.904,161.257,147.954,156.372,147.954z M147.538,217.314h-51.68v-51.691
				h51.68V217.314z"/>
			<path d="M409.846,262.714H189.167c-4.885,0-8.834,3.949-8.834,8.834c0,4.885,3.955,8.834,8.834,8.834h220.679
				c4.885,0,8.834-3.955,8.834-8.834C418.685,266.668,414.731,262.714,409.846,262.714z"/>
			<path d="M409.846,299.917H189.167c-4.885,0-8.834,3.955-8.834,8.834c0,4.885,3.955,8.834,8.834,8.834h220.679
				c4.885,0,8.834-3.949,8.834-8.834C418.685,303.866,414.731,299.917,409.846,299.917z"/>
			<path d="M308.968,337.115H189.167c-4.885,0-8.834,3.955-8.834,8.834s3.955,8.834,8.834,8.834h119.801
				c4.885,0,8.834-3.955,8.834-8.834C317.802,341.07,313.853,337.115,308.968,337.115z"/>
		</g>
</svg>
