<?xml version="1.0" encoding="iso-8859-1"?>
<!-- Generator: Adobe Illustrator 19.0.0, SVG Export Plug-In . SVG Version: 6.00 Build 0)  -->
<svg version="1.1" id="Capa_1" xmlns="http://www.w3.org/2000/svg" xmlns:xlink="http://www.w3.org/1999/xlink" x="0px" y="0px"
	 viewBox="0 0 511.994 511.994" style="enable-background:new 0 0 511.994 511.994;" xml:space="preserve">
<g>
	<g>
		<path d="M441.967,69.985H364.59c-8.471-29.636-35.754-51.415-68.079-51.415h-81.017c-32.325,0-59.608,21.78-68.079,51.415H70.027
			C31.413,69.985,0,101.398,0,140.012v283.385c0,38.614,31.413,70.027,70.027,70.027h371.94c38.614,0,70.027-31.413,70.027-70.027
			V140.012C512,101.398,480.581,69.985,441.967,69.985z M215.494,37.181h81.017c21.933,0,40.722,13.604,48.453,32.803H167.041
			C174.772,50.786,193.561,37.181,215.494,37.181z M70.027,88.597h74.659c0,0.273-0.04,0.536-0.04,0.809h18.612
			c0-0.273,0.034-0.536,0.04-0.809h185.409c0.006,0.273,0.04,0.536,0.04,0.809h18.612c0-0.273-0.04-0.536-0.04-0.809h74.648
			c26.821,0,48.88,20.652,51.187,46.886L316.918,265.357c-7.002-16.766-24.548-28.747-45.183-28.747h-31.47
			c-20.635,0-38.181,11.981-45.183,28.747L18.84,135.483C21.147,109.248,43.206,88.597,70.027,88.597z M301.644,281.315
			c0,14.385-13.416,26.092-29.909,26.092h-31.47c-16.493,0-29.909-11.707-29.909-26.092c0-14.385,13.416-26.092,29.909-26.092h31.47
			C288.228,255.222,301.644,266.93,301.644,281.315z M493.388,423.398c0,28.348-23.067,51.415-51.421,51.415H70.027
			c-28.354,0-51.415-23.061-51.415-51.415V158.425l173.69,128c2.797,22.218,23.107,39.588,47.963,39.588h31.47
			c24.85,0,45.166-17.376,47.963-39.588l173.69-128V423.398z"/>
	</g>
</g>
<g>
</g>
<g>
</g>
<g>
</g>
<g>
</g>
<g>
</g>
<g>
</g>
<g>
</g>
<g>
</g>
<g>
</g>
<g>
</g>
<g>
</g>
<g>
</g>
<g>
</g>
<g>
</g>
<g>
</g>
</svg>
