<?xml version="1.0" encoding="iso-8859-1"?>
<!-- Generator: Adobe Illustrator 19.0.0, SVG Export Plug-In . SVG Version: 6.00 Build 0)  -->
<svg version="1.1" id="Capa_1" xmlns="http://www.w3.org/2000/svg" xmlns:xlink="http://www.w3.org/1999/xlink" x="0px" y="0px"
	 viewBox="0 0 512.005 512.005" style="enable-background:new 0 0 512.005 512.005;" xml:space="preserve">
  <defs>
    <style>
      .cls-1 {
        fill-rule: evenodd;
        opacity: 0.4;
      }
    </style>
  </defs>
<g class="cls-1">
			<path d="M256.003,0C114.842,0,0,114.842,0,256.003c0,141.155,114.842,256.003,256.003,256.003s256.003-114.842,256.003-256.003
				C512,114.842,397.158,0,256.003,0z M256.003,495.126c-131.856,0-239.123-107.268-239.123-239.123S124.147,16.879,256.003,16.879
				s239.123,107.268,239.123,239.123C495.126,387.853,387.853,495.126,256.003,495.126z"/>
			<path d="M264.44,217.434V113.633c0-4.66-3.777-8.437-8.437-8.437s-8.437,3.777-8.437,8.437v103.801
				c-17.742,3.885-31.082,19.674-31.082,38.568c0,11.511,5.027,21.793,12.906,29.021l-32.916,56.698
				c-2.34,4.03-0.966,9.191,3.064,11.532c1.333,0.775,2.79,1.142,4.226,1.142c2.909,0,5.74-1.503,7.305-4.206l32.937-56.729
				c3.808,1.224,7.786,2.061,11.997,2.061c21.792,0,39.519-17.726,39.519-39.519C295.522,237.109,282.182,221.32,264.44,217.434z
				 M256.003,278.642c-12.488,0-22.645-10.157-22.645-22.645s10.157-22.645,22.645-22.645s22.645,10.157,22.645,22.645
				S268.485,278.642,256.003,278.642z"/>
			<path d="M464.488,247.56h-13.164c-4.319-101.12-85.765-182.576-186.884-186.895V47.501c0-4.66-3.777-8.437-8.437-8.437
				c-4.66,0-8.437,3.777-8.437,8.437v13.164c-101.12,4.324-182.57,85.775-186.89,186.895H47.501c-4.66,0-8.437,3.777-8.437,8.437
				c0,4.66,3.777,8.437,8.437,8.437h13.175c4.319,101.12,85.765,182.576,186.884,186.895v13.164c0,4.66,3.777,8.437,8.437,8.437
				c4.66,0,8.437-3.777,8.437-8.437v-13.164c101.12-4.319,182.565-85.77,186.885-186.895h13.164c4.66,0,8.437-3.777,8.437-8.437
				S469.149,247.56,464.488,247.56z M421.709,264.44h12.524c-4.319,91.768-78.025,165.485-169.794,169.804v-12.534
				c0-4.66-3.777-8.437-8.437-8.437s-8.437,3.777-8.437,8.437v12.534c-91.763-4.319-165.474-78.03-169.794-169.804h12.524
				c4.66,0,8.437-3.777,8.437-8.437c0-4.66-3.777-8.437-8.437-8.437H77.772c4.319-91.768,78.025-165.485,169.794-169.804v12.534
				c0,4.66,3.777,8.437,8.437,8.437s8.437-3.777,8.437-8.437V77.762c91.768,4.319,165.474,78.03,169.794,169.804h-12.524
				c-4.66,0-8.437,3.777-8.437,8.437C413.272,260.663,417.049,264.44,421.709,264.44z"/>
		</g>
</svg>
