<?xml version="1.0" encoding="iso-8859-1"?>
<!-- Generator: Adobe Illustrator 19.0.0, SVG Export Plug-In . SVG Version: 6.00 Build 0)  -->
<svg version="1.1" id="Capa_1" xmlns="http://www.w3.org/2000/svg" xmlns:xlink="http://www.w3.org/1999/xlink" x="0px" y="0px"
	 viewBox="0 0 512 512" style="enable-background:new 0 0 512 512;" xml:space="preserve">
<g>
	<g>
		<path d="M464.688,323.828h-5.155V59.241h5.155c16.336,0,29.623-13.287,29.623-29.623S481.024,0,464.688,0H47.312
			C30.976,0,17.689,13.287,17.689,29.623c0,16.336,13.287,29.623,29.623,29.623h5.155v264.581h-5.155
			c-16.336,0-29.623,13.287-29.623,29.623c0,16.332,13.287,29.623,29.623,29.623h191.232l-98.988,115.664
			c-2.883,3.375-2.489,8.446,0.881,11.329c1.515,1.294,3.375,1.933,5.224,1.933c2.268,0,4.521-0.954,6.11-2.809l52.763-61.652
			h102.948l52.763,61.652c1.589,1.854,3.842,2.809,6.11,2.809c1.85,0,3.709-0.635,5.224-1.933c3.37-2.883,3.763-7.954,0.881-11.329
			l-99.008-115.669h191.232c16.337,0,29.623-13.292,29.623-29.623C494.311,337.114,481.024,323.828,464.688,323.828z M47.312,43.175
			c-7.472,0-13.557-6.08-13.557-13.552c0-7.472,6.08-13.552,13.552-13.552h417.375c7.472,0,13.557,6.08,13.557,13.552
			c0,7.472-6.08,13.552-13.557,13.552h-13.188H60.501H47.312z M443.461,59.241v264.586H68.539V59.241H443.461z M293.718,431.469
			h-75.44l37.72-44.076L293.718,431.469z M464.688,366.998H47.312c-7.472,0-13.552-6.08-13.552-13.552
			c0-7.472,6.08-13.552,13.552-13.552h13.188h390.994h13.188c7.472,0,13.557,6.08,13.557,13.552
			C478.24,360.923,472.16,366.998,464.688,366.998z"/>
	</g>
</g>
<g>
</g>
<g>
</g>
<g>
</g>
<g>
</g>
<g>
</g>
<g>
</g>
<g>
</g>
<g>
</g>
<g>
</g>
<g>
</g>
<g>
</g>
<g>
</g>
<g>
</g>
<g>
</g>
<g>
</g>
</svg>
