<?xml version="1.0" encoding="iso-8859-1"?>
<!-- Generator: Adobe Illustrator 19.0.0, SVG Export Plug-In . SVG Version: 6.00 Build 0)  -->
<svg version="1.1" id="Capa_1" xmlns="http://www.w3.org/2000/svg" xmlns:xlink="http://www.w3.org/1999/xlink" x="0px" y="0px"
	 viewBox="0 0 512 512" style="enable-background:new 0 0 512 512;" xml:space="preserve">
  <defs>
    <style>
      .cls-1 {
        fill-rule: evenodd;
        opacity: 0.4;
      }
    </style>
  </defs>
		<g class="cls-1">
			<path d="M411.91,78.621H308.847V50.539C308.847,22.67,286.176,0,258.308,0c-27.868,0-50.539,22.67-50.539,50.539v28.082H100.09
				c-4.378,0-7.926,3.548-7.926,7.926v417.528c0,4.378,3.548,7.926,7.926,7.926h311.82c4.378,0,7.926-3.548,7.926-7.926V86.547
				C419.835,82.169,416.288,78.621,411.91,78.621z M223.625,50.539c0-19.127,15.555-34.683,34.683-34.683
				s34.683,15.555,34.683,34.683v35.988c0,0.005-0.005,0.015-0.005,0.019c0,0.005,0.005,0.015,0.005,0.019v7.576
				c0,19.127-15.555,34.683-34.683,34.683s-34.683-15.555-34.683-34.683V50.539z M403.984,496.149h-0.005H108.016V94.477h99.772
				c0.18,27.713,22.768,50.204,50.524,50.204c27.757,0,50.34-22.496,50.524-50.204h95.147V496.149z"/>
			<path d="M147.984,168.91v205.223c0,4.378,3.548,7.926,7.926,7.926h200.176c4.378,0,7.926-3.548,7.926-7.926V168.91
				c0-4.378-3.548-7.926-7.926-7.926H155.91C151.532,160.984,147.984,164.532,147.984,168.91z M310.604,366.207H202.226v-54.529
				l26.5-18.419c7.659,5.62,17.07,8.984,27.276,8.984c10.386,0,19.948-3.48,27.674-9.28l26.927,18.715V366.207z M225.61,255.995
				c0-16.759,13.628-30.387,30.387-30.387s30.392,13.628,30.392,30.387s-13.633,30.392-30.392,30.392S225.61,272.754,225.61,255.995
				z M163.835,176.84h184.319v189.367h-21.7v-58.678c0-2.597-1.272-5.028-3.402-6.513l-28.383-19.729
				c4.776-7.275,7.576-15.958,7.576-25.296c0-25.5-20.744-46.244-46.248-46.244c-25.5,0-46.244,20.744-46.244,46.244
				c0,9.503,2.888,18.341,7.824,25.699l-27.805,19.326c-2.135,1.48-3.402,3.912-3.402,6.513v58.678h-22.535V176.84z"/>
			<path d="M324.703,404.312h-132.79c-4.378,0-7.926,3.548-7.926,7.926s3.548,7.926,7.926,7.926h132.79
				c4.378,0,7.926-3.548,7.926-7.926C332.634,407.864,329.081,404.312,324.703,404.312z"/>
			<path d="M322.393,441.97h-132.79c-4.378,0-7.926,3.548-7.926,7.926s3.548,7.926,7.926,7.926h132.79
				c4.378,0,7.926-3.548,7.926-7.926C330.323,445.517,326.771,441.97,322.393,441.97z"/>
			<path d="M258.308,74.69c14.483,0,26.262-11.779,26.262-26.262c0-14.483-11.779-26.262-26.262-26.262
				c-14.483,0-26.262,11.779-26.262,26.262C232.051,62.91,243.83,74.69,258.308,74.69z M258.308,38.022
				c5.737,0,10.406,4.669,10.406,10.406c0,5.737-4.669,10.406-10.406,10.406c-5.737,0-10.406-4.669-10.406-10.406
				C247.907,42.691,252.571,38.022,258.308,38.022z"/>
		</g>
</svg>
