<?xml version="1.0" encoding="iso-8859-1"?>
<!-- Generator: Adobe Illustrator 19.0.0, SVG Export Plug-In . SVG Version: 6.00 Build 0)  -->
<svg version="1.1" id="Capa_1" xmlns="http://www.w3.org/2000/svg" xmlns:xlink="http://www.w3.org/1999/xlink" x="0px" y="0px"
	 viewBox="0 0 512.005 512.005" style="enable-background:new 0 0 512.005 512.005;" xml:space="preserve">
<g>
	<g>
		<path d="M389.527,401.364l-24.704-117.676l-13.736-65.42c0-0.004-0.004-0.009-0.004-0.018l-13.749-65.486
			c-0.004-0.018-0.009-0.04-0.013-0.057l-13.152-62.652c20.934-4.056,36.801-22.503,36.801-44.605
			C360.974,20.389,340.576,0,315.512,0h-59.818c-25.056,0-45.449,20.389-45.449,45.453c0,22.081,15.828,40.514,36.726,44.596
			l-3.876,17.832l-118.95,133.17c-1.169,1.318-1.824,3.014-1.824,4.781v70.865c0,3.968,3.212,7.176,7.176,7.176h66.638
			l-16.839,77.438c-0.009,0.048-0.004,0.101-0.013,0.149c-0.018,0.092-0.009,0.185-0.026,0.281
			c-0.114,0.751-0.097,1.494,0.018,2.228c0.026,0.167,0.039,0.325,0.079,0.492c0.189,0.804,0.51,1.564,0.962,2.263
			c0.04,0.057,0.04,0.127,0.079,0.185c0.119,0.176,0.281,0.303,0.413,0.466c0.127,0.154,0.22,0.33,0.36,0.475l99.295,101.984
			c1.353,1.389,3.212,2.171,5.146,2.171c0.013,0,0.026,0,0.044,0c1.955-0.013,3.819-0.822,5.159-2.237l96.896-101.989
			C389.334,406.07,390.015,403.671,389.527,401.364z M325.518,166.328l10.55,50.252l-120.119,83.757l14.764-67.903L325.518,166.328z
			 M224.601,45.453c0-17.15,13.947-31.102,31.093-31.102h59.818c17.15,0,31.106,13.947,31.106,31.102
			c0,17.15-13.956,31.102-31.106,31.102h-59.818C238.548,76.555,224.601,62.608,224.601,45.453z M261.481,90.911h48.204
			l12.629,60.152L235.2,211.803L261.481,90.911z M136.678,309.517v-60.947l100.227-112.205L199.19,309.829
			c-0.519-0.114-1.006-0.312-1.56-0.312H136.678z M211.462,320.968l127.813-89.118l10.511,50.072L197.181,386.678L211.462,320.968z
			 M197.401,403.934l155.576-106.796l10.599,50.476l-131.636,91.79L197.401,403.934z M285.548,494.472l-43.458-44.64l124.693-86.947
			l7.923,37.737L285.548,494.472z"/>
	</g>
</g>
<g>
</g>
<g>
</g>
<g>
</g>
<g>
</g>
<g>
</g>
<g>
</g>
<g>
</g>
<g>
</g>
<g>
</g>
<g>
</g>
<g>
</g>
<g>
</g>
<g>
</g>
<g>
</g>
<g>
</g>
</svg>
