<svg xmlns="http://www.w3.org/2000/svg" width="40" height="27" viewBox="0 0 40 27">
  <defs>
    <style>
      .cls-1 {
        fill-rule: evenodd;
        opacity: 0.4;
      }
    </style>
  </defs>
  <path id="series" class="cls-1" d="M474.286,97H435.714a0.714,0.714,0,0,0-.714.714v25.571a0.714,0.714,0,0,0,.714.715h38.572a0.714,0.714,0,0,0,.714-0.715V97.714A0.714,0.714,0,0,0,474.286,97Zm-37.858,4.429h6.429v12.857h-6.429V101.429Zm37.144,12.857h-2.143V101.429h2.143v12.857Zm0-14.286h-2.857a0.715,0.715,0,0,0-.715.715V115a0.714,0.714,0,0,0,.715.714h2.857v6.857H436.428v-6.857h7.143a0.715,0.715,0,0,0,.715-0.714V100.714a0.715,0.715,0,0,0-.715-0.714h-7.143V98.429h37.144V100Zm-17.858,17.571A1.429,1.429,0,1,1,454.286,119,1.429,1.429,0,0,1,455.714,117.571Zm-8.571-1.857h20a0.713,0.713,0,0,0,.714-0.714V100.714a0.714,0.714,0,0,0-.714-0.714h-20a0.715,0.715,0,0,0-.715.715V115A0.714,0.714,0,0,0,447.143,115.714Zm0.714-14.285h18.572v12.857H447.857V101.429Zm-0.714,16.856h2.143v1.429h-2.143v-1.429Zm3.571,0h2.143v1.429h-2.143v-1.429Zm7.857,0h2.143v1.429h-2.143v-1.429Zm3.572,0h2.143v1.429h-2.143v-1.429Z" transform="translate(-435 -97)"/>
</svg>
