<svg xmlns="http://www.w3.org/2000/svg" width="30" height="30" viewBox="0 0 30 30">
  <defs>
    <style>
      .cls-1 {
        fill-rule: evenodd;
        opacity: 0.4;
      }
    </style>
  </defs>
  <path class="cls-1" d="M1139.45,95h-28.78a0.615,0.615,0,0,0-.61.612v11.327a0.615,0.615,0,0,0,.61.612h17.25l5.35,3.864a0.646,0.646,0,0,0,.36.116,0.609,0.609,0,0,0,.28-0.068,0.6,0.6,0,0,0,.33-0.545v-3.367h5.21a0.609,0.609,0,0,0,.61-0.612V95.612A0.609,0.609,0,0,0,1139.45,95Zm-0.61,11.327h-5.21a0.609,0.609,0,0,0-.61.612v2.782l-4.54-3.279a0.606,0.606,0,0,0-.36-0.115h-16.83v-10.1h27.55v10.1Zm0.61,6.428H1122.2l-5.35-3.863a0.61,0.61,0,0,0-.97.5v3.367h-5.21a0.615,0.615,0,0,0-.61.612v11.021a0.615,0.615,0,0,0,.61.612h28.78a0.609,0.609,0,0,0,.61-0.612V113.367A0.609,0.609,0,0,0,1139.45,112.755Zm-0.61,11.02h-27.55v-9.8h5.2a0.61,0.61,0,0,0,.61-0.613v-2.782l4.54,3.279a0.63,0.63,0,0,0,.36.116h16.84v9.8Zm-25.11-26.02h22.66V98.98h-22.66V97.755Zm0,2.449h22.66v1.225h-22.66V100.2Zm0,2.449h17.45v1.225h-17.45v-1.225Zm3.98,13.776h18.68v1.224h-18.68v-1.224Zm-3.98,2.448h22.66V120.1h-22.66v-1.225Zm0,2.45h19.6v1.224h-19.6v-1.224Zm21.13-18.674h1.53v1.225h-1.53v-1.225Zm-2.45,0h1.53v1.225h-1.53v-1.225Zm-18.68,13.776h1.54v1.224h-1.54v-1.224Z" transform="translate(-1110.06 -95)"/>
</svg>
