<svg xmlns="http://www.w3.org/2000/svg" width="30" height="24" viewBox="0 0 30 24">
  <defs>
    <style>
      .cls-1 {
        fill-rule: evenodd;
        opacity: 0.4;
      }
    </style>
  </defs>
  <path id="catalog" class="cls-1" d="M3.293,0A3.268,3.268,0,0,0,.008,3.245a3.285,3.285,0,0,0,6.569,0A3.268,3.268,0,0,0,3.293,0Zm0,4.8A1.552,1.552,0,1,1,4.864,3.245,1.563,1.563,0,0,1,3.293,4.8ZM29.141,2.4H9.148a0.846,0.846,0,1,0,0,1.693H29.141A0.846,0.846,0,1,0,29.141,2.4ZM3.293,8.747a0.846,0.846,0,1,0,0,1.692,1.552,1.552,0,1,1-1.571,1.552,0.852,0.852,0,0,0-.857-0.846,0.852,0.852,0,0,0-.857.846,3.285,3.285,0,0,0,6.569,0A3.268,3.268,0,0,0,3.293,8.747Zm25.848,2.4H9.148a0.846,0.846,0,1,0,0,1.693H29.141A0.846,0.846,0,1,0,29.141,11.144ZM3.293,17.492a3.245,3.245,0,1,0,3.285,3.244A3.268,3.268,0,0,0,3.293,17.492Zm0,4.8a1.552,1.552,0,1,1,1.571-1.552A1.563,1.563,0,0,1,3.293,22.288Zm25.848-2.4H9.148a0.846,0.846,0,1,0,0,1.693H29.141A0.846,0.846,0,1,0,29.141,19.89Z"/>
</svg>
