<?xml version="1.0" encoding="iso-8859-1"?>
<!-- Generator: Adobe Illustrator 19.0.0, SVG Export Plug-In . SVG Version: 6.00 Build 0)  -->
<svg version="1.1" id="Layer_1" xmlns="http://www.w3.org/2000/svg" xmlns:xlink="http://www.w3.org/1999/xlink" x="0px" y="0px"
	 viewBox="0 0 511.999 511.999" style="enable-background:new 0 0 511.999 511.999;" xml:space="preserve">
<path style="fill:#F0C087;" d="M412.903,33.032H280.773c0,13.682-11.092,24.774-24.774,24.774
	c-13.682,0-24.774-11.092-24.774-24.774H99.096c-13.682,0-24.774,11.092-24.774,24.774v429.419
	c0,13.682,11.092,24.774,24.774,24.774h313.806c13.682,0,24.774-11.092,24.774-24.774V57.806
	C437.677,44.124,426.586,33.032,412.903,33.032z"/>
<path style="fill:#E6AF78;" d="M404.644,49.548h-49.548c-4.561,0-8.258-3.698-8.258-8.258v-8.258h-66.065
	c0,13.682-11.092,24.774-24.774,24.774c-13.682,0-24.774-11.092-24.774-24.774H165.16v8.258c0,4.56-3.697,8.258-8.258,8.258h-49.548
	c-9.121,0-16.516,7.394-16.516,16.516v396.387c0,9.121,7.395,16.516,16.516,16.516h297.29c9.121,0,16.516-7.395,16.516-16.516
	V66.065C421.161,56.943,413.766,49.548,404.644,49.548z"/>
<path style="fill:#FFFFFF;" d="M396.386,462.452H115.612c-4.561,0-8.258-3.697-8.258-8.258V74.323c0-4.561,3.697-8.258,8.258-8.258
	h280.774c4.561,0,8.258,3.697,8.258,8.258v379.871C404.644,458.754,400.948,462.452,396.386,462.452z"/>
<path style="fill:#C7CFE2;" d="M313.805,16.516h-29.355C278.729,6.684,268.195,0,255.999,0s-22.729,6.684-28.451,16.516h-29.355
	c-9.121,0-16.516,7.394-16.516,16.516v33.032c0,4.56,3.697,8.258,8.258,8.258h132.129c4.561,0,8.258-3.698,8.258-8.258V33.032
	C330.323,23.91,322.927,16.516,313.805,16.516z M255.999,45.419c-6.841,0-12.387-5.546-12.387-12.387s5.546-12.387,12.387-12.387
	c6.841,0,12.387,5.546,12.387,12.387S262.841,45.419,255.999,45.419z"/>
<g>
	<circle style="fill:#B4E66E;" cx="173.419" cy="247.74" r="20.645"/>
	<circle style="fill:#B4E66E;" cx="173.419" cy="322.06" r="20.645"/>
	<circle style="fill:#B4E66E;" cx="173.419" cy="396.39" r="20.645"/>
</g>
<path style="fill:#AFB9D2;" d="M297.289,239.484h-74.323c-4.565,0-8.258-3.694-8.258-8.258c0-4.565,3.694-8.258,8.258-8.258h74.323
	c4.565,0,8.258,3.694,8.258,8.258S301.854,239.484,297.289,239.484z"/>
<path style="fill:#C7CFE2;" d="M355.096,272.516H222.967c-4.565,0-8.258-3.694-8.258-8.258s3.694-8.258,8.258-8.258h132.129
	c4.565,0,8.258,3.694,8.258,8.258S359.661,272.516,355.096,272.516z"/>
<path style="fill:#AFB9D2;" d="M297.289,313.806h-74.323c-4.565,0-8.258-3.694-8.258-8.258c0-4.565,3.694-8.258,8.258-8.258h74.323
	c4.565,0,8.258,3.694,8.258,8.258C305.547,310.113,301.854,313.806,297.289,313.806z"/>
<path style="fill:#C7CFE2;" d="M355.096,346.839H222.967c-4.565,0-8.258-3.694-8.258-8.258s3.694-8.258,8.258-8.258h132.129
	c4.565,0,8.258,3.694,8.258,8.258S359.661,346.839,355.096,346.839z"/>
<path style="fill:#AFB9D2;" d="M297.289,388.129h-74.323c-4.565,0-8.258-3.694-8.258-8.258s3.694-8.258,8.258-8.258h74.323
	c4.565,0,8.258,3.694,8.258,8.258S301.854,388.129,297.289,388.129z"/>
<path style="fill:#C7CFE2;" d="M355.096,421.161H222.967c-4.565,0-8.258-3.694-8.258-8.258s3.694-8.258,8.258-8.258h132.129
	c4.565,0,8.258,3.694,8.258,8.258S359.661,421.161,355.096,421.161z"/>
<path style="fill:#FF507D;" d="M346.839,115.613H222.967c-4.565,0-8.258-3.698-8.258-8.258c0-4.56,3.694-8.258,8.258-8.258h123.871
	c4.565,0,8.258,3.698,8.258,8.258S351.403,115.613,346.839,115.613z"/>
<path style="fill:#C7CFE2;" d="M355.096,189.935H156.902c-4.565,0-8.258-3.694-8.258-8.258s3.694-8.258,8.258-8.258h198.194
	c4.565,0,8.258,3.694,8.258,8.258S359.661,189.935,355.096,189.935z"/>
<path style="fill:#959CB5;" d="M239.483,148.645h-16.516c-4.565,0-8.258-3.698-8.258-8.258s3.694-8.258,8.258-8.258h16.516
	c4.565,0,8.258,3.698,8.258,8.258S244.048,148.645,239.483,148.645z"/>
<path style="fill:#AFB9D2;" d="M305.547,148.645h-33.032c-4.565,0-8.258-3.698-8.258-8.258s3.694-8.258,8.258-8.258h33.032
	c4.565,0,8.258,3.698,8.258,8.258S310.112,148.645,305.547,148.645z"/>
<path style="fill:#FF507D;" d="M189.934,148.645h-33.032c-4.561,0-8.258-3.697-8.258-8.258v-33.032c0-4.561,3.697-8.258,8.258-8.258
	h33.032c4.561,0,8.258,3.697,8.258,8.258v33.032C198.193,144.948,194.495,148.645,189.934,148.645z"/>
<path style="fill:#AFB9D2;" d="M322.065,74.323h-132.13c-4.561,0-8.258-3.697-8.258-8.258l0,0c0-4.561,3.697-8.258,8.258-8.258
	h132.129c4.561,0,8.258,3.697,8.258,8.258l0,0C330.323,70.625,326.625,74.323,322.065,74.323z"/>
<circle style="fill:#FF6991;" cx="173.419" cy="123.87" r="12.387"/>
<g>
</g>
<g>
</g>
<g>
</g>
<g>
</g>
<g>
</g>
<g>
</g>
<g>
</g>
<g>
</g>
<g>
</g>
<g>
</g>
<g>
</g>
<g>
</g>
<g>
</g>
<g>
</g>
<g>
</g>
</svg>
