<?xml version="1.0" encoding="utf-8"?>
<!-- Generator: Adobe Illustrator 22.0.1, SVG Export Plug-In . SVG Version: 6.00 Build 0)  -->
<svg version="1.1" id="Layer_1" xmlns="http://www.w3.org/2000/svg" xmlns:xlink="http://www.w3.org/1999/xlink" x="0px" y="0px"
	 viewBox="0 0 224.4 83.3" style="enable-background:new 0 0 224.4 83.3;" xml:space="preserve">

<style type="text/css">
	.st0{fill:none;stroke:rgba(255,255,255,0);stroke-width:1;stroke-linecap:round;stroke-miterlimit:10;} <!-- line dash ||infinite||-->
	.st1{fill:#fff;} <!-- 2 -->
	.st2{fill:#fff;} <!-- study -->
	.st3{opacity:0.72;fill:#fff;enable-background:new    ;} <!-- canh 1 -->
	.st4{fill:#fff;} <!-- canh 2 -->
	
		.st0 {
			stroke-dasharray:0,130;
			animation: st0 6s forwards;
			-webkit-animation: st0 6s forwards;
			-moz-animation: st0 6s forwards;
			animation-delay: 2s;
		}
		@keyframes st0 {
			0% {
				stroke:rgba(255,255,255,0);
			}
			20% {
				stroke-dasharray:0,130;
				stroke-dashoffset:0;
				stroke:#fff; opacity:0.5;
			}
			100% {
				stroke-dasharray:3,3;
				stroke-dashoffset:50;
				stroke:#fff; opacity:1;
			}
		}
		@-webkit-keyframes st0 {
			0% {
				stroke:rgba(255,255,255,0);
			}
			20% {
				stroke-dasharray:0,130;
				stroke-dashoffset:0;
				stroke:#fff; opacity:0.5;
			}
			100% {
				stroke-dasharray:3,3;
				stroke-dashoffset:50;
				stroke:#fff; opacity:1;
			}
		}
		@-moz-keyframes st0 {
			0% {
				stroke:rgba(255,255,255,0);
			}
			20% {
				stroke-dasharray:0,130;
				stroke-dashoffset:0;
				stroke:#fff; opacity:0.5;
			}
			100% {
				stroke-dasharray:3,3;
				stroke-dashoffset:50;
				stroke:#fff; opacity:1;
			}
		}
	
		.st1 {
			stroke-width:0.3;stroke-linecap:round;stroke-miterlimit:10;
			animation: st1 4s forwards;
			-webkit-animation: st1 4s forwards;
			-moz-animation: st1 4s forwards;
		}
		@keyframes st1 {
			0% {
				stroke-dasharray:3,60;
				stroke-dashoffset:130;
				stroke:#fff;
				fill:rgba(255,255,255,0);
			}
			70% {
				stroke-dasharray:130,0;
				stroke-dashoffset:0;
				stroke:rgba(255,255,255,1);
				fill:#fff;
			}
			100% {
				stroke-dasharray:130,0;
				stroke-dashoffset:0;
				stroke:rgba(255,255,255,0);
				fill:#fff;
			}
		}
		@-webkit-keyframes st1 {
			0% {
				stroke-dasharray:3,60;
				stroke-dashoffset:130;
				stroke:#fff;
				fill:rgba(255,255,255,0);
			}
			70% {
				stroke-dasharray:130,0;
				stroke-dashoffset:0;
				stroke:rgba(255,255,255,1);
				fill:#fff;
			}
			100% {
				stroke-dasharray:130,0;
				stroke-dashoffset:0;
				stroke:rgba(255,255,255,0);
				fill:#fff;
			}
		}
		@-moz-keyframes st1 {
			0% {
				stroke-dasharray:3,60;
				stroke-dashoffset:130;
				stroke:#fff;
				fill:rgba(255,255,255,0);
			}
			70% {
				stroke-dasharray:130,0;
				stroke-dashoffset:0;
				stroke:rgba(255,255,255,1);
				fill:#fff;
			}
			100% {
				stroke-dasharray:130,0;
				stroke-dashoffset:0;
				stroke:rgba(255,255,255,0);
				fill:#fff;
			}
		}
	
		.st2 {
			stroke-width:0.3;stroke-linecap:round;stroke-miterlimit:10;
			animation: st2 5s forwards;
			-webkit-animation: st2 5s forwards;
			-moz-animation: st2 5s forwards;
		}
		@keyframes st2 {
			0% {
				stroke-dasharray:3,60;
				stroke-dashoffset:130;
				stroke:#fff;
				fill:rgba(255,255,255,0);
			}
			70% {
				stroke-dasharray:130,0;
				stroke-dashoffset:0;
				stroke:rgba(255,255,255,1);
				fill:#fff;
			}
			100% {
				stroke-dasharray:130,0;
				stroke-dashoffset:0;
				stroke:rgba(255,255,255,0);
				fill:#fff;
			}
		}
		@-webkit-keyframes st2 {
			0% {
				stroke-dasharray:3,60;
				stroke-dashoffset:130;
				stroke:#fff;
				fill:rgba(255,255,255,0);
			}
			70% {
				stroke-dasharray:130,0;
				stroke-dashoffset:0;
				stroke:rgba(255,255,255,1);
				fill:#fff;
			}
			100% {
				stroke-dasharray:130,0;
				stroke-dashoffset:0;
				stroke:rgba(255,255,255,0);
				fill:#fff;
			}
		}
		@-moz-keyframes st2 {
			0% {
				stroke-dasharray:3,60;
				stroke-dashoffset:130;
				stroke:#fff;
				fill:rgba(255,255,255,0);
			}
			70% {
				stroke-dasharray:130,0;
				stroke-dashoffset:0;
				stroke:rgba(255,255,255,1);
				fill:#fff;
			}
			100% {
				stroke-dasharray:130,0;
				stroke-dashoffset:0;
				stroke:rgba(255,255,255,0);
				fill:#fff;
			}
		}
		
		.st3 {
			stroke-width:0.3;stroke-linecap:round;stroke-miterlimit:10;
			animation: st3 8s forwards;
			-webkit-animation: st3 8s forwards;
			-moz-animation: st3 8s forwards;
		}
		@keyframes st3 {
			0% {
				stroke-dasharray:3,60;
				stroke-dashoffset:130;
				stroke:#fff;
				fill:rgba(255,255,255,0);
			}
			40% {
				stroke-dasharray:130,0;
				stroke-dashoffset:0;
				stroke:rgba(255,255,255,1);
				fill:#fff;
			}
			50% {
				stroke-dasharray:130,0;
				stroke-dashoffset:0;
				stroke:rgba(255,255,255,0);
				fill:#fff;
			}
			60% {
				opacity:0.72;
			}
			70% {
				opacity:0.1;
			}
			80% {
				opacity:0.72;
			}
			90% {
				opacity:0.1;
			}
			100% {
				opacity:0.72;
			}
		}
		@-webkit-keyframes st3 {
			0% {
				stroke-dasharray:3,60;
				stroke-dashoffset:130;
				stroke:#fff;
				fill:rgba(255,255,255,0);
			}
			40% {
				stroke-dasharray:130,0;
				stroke-dashoffset:0;
				stroke:rgba(255,255,255,1);
				fill:#fff;
			}
			50% {
				stroke-dasharray:130,0;
				stroke-dashoffset:0;
				stroke:rgba(255,255,255,0);
				fill:#fff;
			}
			60% {
				opacity:0.72;
			}
			70% {
				opacity:0.1;
			}
			80% {
				opacity:0.72;
			}
			90% {
				opacity:0.1;
			}
			100% {
				opacity:0.72;
			}
		}
		@-moz-keyframes st3 {
			0% {
				stroke-dasharray:3,60;
				stroke-dashoffset:130;
				stroke:#fff;
				fill:rgba(255,255,255,0);
			}
			40% {
				stroke-dasharray:130,0;
				stroke-dashoffset:0;
				stroke:rgba(0,150,255,1);
				fill:#fff;
			}
			50% {
				stroke-dasharray:130,0;
				stroke-dashoffset:0;
				stroke:rgba(255,255,255,0);
				fill:#fff;
			}
			60% {
				opacity:0.72;
			}
			70% {
				opacity:0.1;
			}
			80% {
				opacity:0.72;
			}
			90% {
				opacity:0.1;
			}
			100% {
				opacity:0.72;
			}
		}
		
		.st4 {
			stroke-width:0.3;stroke-linecap:round;stroke-miterlimit:10;
			animation: st4 8s forwards;
			-webkit-animation: st4 8s forwards;
			-moz-animation: st4 8s forwards;
			-o-animation: st4 8s forwards;
		}
		@keyframes st4 {
			0% {
				stroke-dasharray:3,60;
				stroke-dashoffset:130;
				stroke:#fff;
				fill:rgba(255,255,255,0);
			}
			40% {
				stroke-dasharray:130,0;
				stroke-dashoffset:0;
				stroke:rgba(0,150,255,1);
				fill:#fff;
			}
			50% {
				stroke-dasharray:130,0;
				stroke-dashoffset:0;
				stroke:rgba(255,255,255,0);
				fill:#fff;
			}
			60% {
				opacity:1;
			}
			70% {
				opacity:0.1;
			}
			80% {
				opacity:1;
			}
			90% {
				opacity:0.1;
			}
			100% {
				opacity:1;
			}
		}
		@-webkit-keyframes st4 {
			0% {
				stroke-dasharray:3,60;
				stroke-dashoffset:130;
				stroke:#fff;
				fill:rgba(255,255,255,0);
			}
			40% {
				stroke-dasharray:130,0;
				stroke-dashoffset:0;
				stroke:rgba(0,150,255,1);
				fill:#fff;
			}
			50% {
				stroke-dasharray:130,0;
				stroke-dashoffset:0;
				stroke:rgba(255,255,255,0);
				fill:#fff;
			}
			60% {
				opacity:1;
			}
			70% {
				opacity:0.1;
			}
			80% {
				opacity:1;
			}
			90% {
				opacity:0.1;
			}
			100% {
				opacity:1;
			}
		}
		@-moz-keyframes st4 {
			0% {
				stroke-dasharray:3,60;
				stroke-dashoffset:130;
				stroke:#fff;
				fill:rgba(255,255,255,0);
			}
			40% {
				stroke-dasharray:130,0;
				stroke-dashoffset:0;
				stroke:rgba(255,255,255,1);
				fill:#fff;
			}
			50% {
				stroke-dasharray:130,0;
				stroke-dashoffset:0;
				stroke:rgba(0,150,255,0);
				fill:#fff;
			}
			60% {
				opacity:1;
			}
			70% {
				opacity:0.1;
			}
			80% {
				opacity:1;
			}
			90% {
				opacity:0.1;
			}
			100% {
				opacity:1;
			}
		}
</style>
<title>logo-2study</title>
<path class="st0" d="M62,35.5c7.5,20.1,24.1,46.8,48.1,38.7c26.4-8.8,3-31.9-4.8-16.4c-7.6,15.3,33,24.5,53,23.7
	c27.1-1,49.3-14.2,65.9,0"/>
<path class="st1" d="M116.7,55v3.6H93.9l16.4-19.4c1.4-1.7,2.4-3.6,2.4-5.9c0-3.9-3.2-6.8-7-6.8c-4.3,0-6.9,3.1-7.1,7.2h-3.9
	c0.1-6.1,4.7-10.8,10.8-10.8c5.8,0,11,4.3,11,10.4c0,2.9-0.9,5.4-2.7,7.4L101.9,55H116.7z"/>
<path class="st2" d="M133.1,41.8c-0.5-1.2-1.6-2.2-3-2.2c-1.3,0-2.7,1-2.7,2.4c0,2,2.5,2.7,5.1,3.8s5.1,2.6,5.1,6.3
	c0,4.1-3.4,7.1-7.4,7.1c-3.7,0-6.6-2-7.7-5.5l3.3-1.4c0.9,2,2,3.5,4.5,3.5c2,0,3.5-1.3,3.5-3.4c0-4.8-9.9-3.3-9.9-10.1
	c0-3.7,3-6.2,6.5-6.2c2.6,0,4.8,1.8,5.8,4.1L133.1,41.8z"/>
<path class="st2" d="M146.7,58.6H143V40.2h-2.3v-3.4h2.3v-7.9h3.7v7.9h3.9v3.4h-3.9V58.6z"/>
<path class="st2" d="M157.4,48.9c0,3.7,0.4,6.8,4.9,6.8s4.9-3.2,4.9-6.8V36.7h3.7v12.6c0,5.8-2.2,9.9-8.7,9.9s-8.7-4.1-8.7-9.9V36.7
	h3.9L157.4,48.9L157.4,48.9z"/>
<path class="st2" d="M194.1,55.6L194.1,55.6c-1.9,2.4-4.7,3.6-7.6,3.6c-6.5,0-10.5-5.4-10.5-11.5c0-6.2,4-11.6,10.5-11.6
	c3,0,5.7,1.4,7.5,3.7h0.1V20.2h3.7v38.4h-3.7V55.6z M179.8,47.5c0,4.3,2.5,8.3,7.2,8.3c4.8,0,7.3-3.9,7.3-8.3c0-4.3-2.7-7.9-7.4-7.9
	C182.6,39.6,179.8,43.4,179.8,47.5z"/>
<path class="st2" d="M201.1,36.7h4.3l7.7,15.7l7.1-15.7h4.2l-16.2,34.2H204l7.1-14.3L201.1,36.7z"/>
<path class="st4" d="M87.8,15.4C63.7,34.2,24.4,50.8,0,55.9c40.8-23,68.4-55,68.4-55C73.4,8.1,78.6,13.5,87.8,15.4z"/>
<path class="st3" d="M87.8,15.4C63.7,34.2,24.4,50.8,0,55.9C40.8,32.9,42,0,42,0C52.3,6.1,71.6,13.9,87.8,15.4z"/>
</svg>
