<?xml version="1.0" encoding="iso-8859-1"?>
<!-- Generator: Adobe Illustrator 19.0.0, SVG Export Plug-In . SVG Version: 6.00 Build 0)  -->
<svg version="1.1" id="Layer_1" xmlns="http://www.w3.org/2000/svg" xmlns:xlink="http://www.w3.org/1999/xlink" x="0px" y="0px"
	 viewBox="0 0 410.479 410.479" style="enable-background:new 0 0 410.479 410.479;" xml:space="preserve">
<g>
	<path style="fill:#FCA430;" d="M403.895,179.563l-55.931,54.52c-17.31,16.871-25.2,41.17-21.119,64.99l13.21,76.989
		c3.04,17.741-15.58,31.261-31.51,22.891l-69.141-36.35c-14.98-7.881-32-10.24-48.2-7.071c-6.94,1.341-13.719,3.7-20.129,7.071
		l-69.141,36.35c-15.93,8.371-34.55-5.149-31.5-22.891l13.199-76.989c4.09-23.82-3.81-48.12-21.11-64.99l-55.94-54.52
		c-12.89-12.56-5.78-34.45,12.03-37.04l77.31-11.23c23.911-3.48,44.581-18.491,55.27-40.16l34.571-70.05
		c3.62-7.35,10.37-11.35,17.4-12c8.401-0.791,17.211,3.209,21.55,12l34.57,70.05c10.69,21.669,31.361,36.68,55.281,40.16
		l77.299,11.23C409.675,145.113,416.785,167.003,403.895,179.563"/>
	<path style="fill:#FFDE55;" d="M251.97,338.703c-14.354-7.546-30.512-11.535-46.728-11.535c-16.217,0-32.374,3.989-46.728,11.535
		l-49.429,25.986c-4.186,2.201-9.078-1.354-8.278-6.015l9.439-55.04c5.588-32.582-5.207-65.808-28.879-88.881l-39.988-38.98
		c-3.386-3.301-1.518-9.05,3.162-9.73l60.455-8.785c29.457-4.28,54.921-22.782,68.094-49.473l27.036-54.782
		c2.093-4.24,8.139-4.24,10.232,0l24.714,50.077c14.63,29.642,42.895,50.178,75.608,54.931l55.264,8.03
		c4.679,0.68,6.548,6.431,3.162,9.732l-39.99,38.98c-23.671,23.073-34.467,56.299-28.878,88.881l9.439,55.04
		c0.8,4.661-4.093,8.215-8.278,6.015L251.97,338.703"/>
	<path style="fill:#FCA430;" d="M216.538,112.388c0,6.238-5.058,11.296-11.296,11.296c-6.239,0-11.297-5.058-11.297-11.296
		c0-6.239,5.058-11.297,11.297-11.297C211.48,101.091,216.538,106.149,216.538,112.388"/>
	<path style="fill:#FCA430;" d="M193.689,175.688c-4.788-6.381-3.498-15.435,2.882-20.224s15.434-3.499,20.223,2.882
		c4.79,6.38,3.499,15.434-2.881,20.223C207.533,183.358,198.479,182.068,193.689,175.688"/>
	<path style="fill:#FCA430;" d="M319.035,199.819c-5.859,2.144-12.346-0.868-14.49-6.727c-2.143-5.86,0.868-12.346,6.728-14.49
		c5.859-2.144,12.346,0.868,14.49,6.727C327.905,191.188,324.893,197.676,319.035,199.819"/>
	<path style="fill:#FCA430;" d="M251.738,200.111c4.346-6.689,13.293-8.589,19.982-4.242c6.69,4.346,8.588,13.292,4.242,19.982
		c-4.346,6.689-13.293,8.588-19.982,4.242C249.29,215.747,247.392,206.801,251.738,200.111"/>
	<path style="fill:#FCA430;" d="M268.36,328.629c-3.839-4.918-2.965-12.016,1.952-15.855s12.016-2.965,15.856,1.952
		c3.839,4.917,2.965,12.017-1.952,15.856C279.297,334.42,272.199,333.546,268.36,328.629"/>
	<path style="fill:#FCA430;" d="M247.417,264.672c7.701,2.082,12.255,10.013,10.173,17.713s-10.013,12.257-17.714,10.174
		s-12.255-10.013-10.174-17.713C231.784,267.144,239.715,262.59,247.417,264.672"/>
	<circle style="fill:#FCA430;" cx="132.417" cy="321.045" r="11.296"/>
	<path style="fill:#FCA430;" d="M180.848,278.679c-0.221,7.975-6.864,14.26-14.839,14.039c-7.974-0.221-14.259-6.864-14.038-14.839
		c0.222-7.974,6.866-14.259,14.839-14.039C174.785,264.061,181.07,270.705,180.848,278.679"/>
	<circle style="fill:#FCA430;" cx="95.686" cy="188.252" r="11.297"/>
	<circle style="fill:#FCA430;" cx="146.824" cy="207.47" r="14.444"/>
	<path style="fill:#FCA430;" d="M224.316,229.424c0,10.535-8.54,19.075-19.074,19.075s-19.074-8.54-19.074-19.075
		c0-10.534,8.54-19.074,19.074-19.074S224.316,218.889,224.316,229.424"/>
	<path style="fill:#FDBD68;" d="M205.25,8.986c-0.696,0-1.392,0.033-2.085,0.098c5.633,14.313,12.04,34.86,14.479,58.685
		l17.427,35.312c14.63,29.642,42.895,50.178,75.608,54.931l55.264,8.03c4.679,0.68,6.548,6.431,3.162,9.732l-39.99,38.98
		c-23.671,23.073-34.467,56.299-28.878,88.881l9.439,55.04c0.633,3.688-2.298,6.683-5.622,6.683c-0.877,0-1.782-0.209-2.656-0.668
		l-49.429-25.986c-14.354-7.546-30.512-11.535-46.728-11.535c-9.481,0-18.942,1.363-28.034,4.004
		c3.893,8.585,8.591,16.733,13.997,24.36c4.645-0.909,9.355-1.363,14.068-1.363c11.722,0,23.448,2.813,34.132,8.434l69.141,36.35
		c3.326,1.748,6.769,2.541,10.108,2.541c11.467,0,21.703-9.358,21.731-21.561c0.003-1.262-0.103-2.555-0.329-3.871l-13.21-76.989
		c-0.701-4.094-1.049-8.202-1.056-12.285c-0.034-19.669,7.84-38.734,22.176-52.706l55.931-54.52
		c4.531-4.416,6.591-9.985,6.583-15.462c-0.015-10.104-7.065-19.898-18.614-21.577l-77.299-11.23
		c-23.92-3.48-44.59-18.491-55.281-40.16l-34.57-70.05C220.733,13.018,212.989,8.986,205.25,8.986"/>
	<path style="fill:#FFE783;" d="M277.272,332.974c-3.36,0-6.684-1.492-8.912-4.345c-3.839-4.918-2.965-12.016,1.952-15.855
		c2.064-1.611,4.513-2.393,6.943-2.393c3.36,0,6.684,1.492,8.912,4.345c3.839,4.917,2.965,12.017-1.952,15.856
		C282.151,332.193,279.702,332.974,277.272,332.974 M243.655,293.064c-1.248,0-2.516-0.163-3.778-0.504
		c-7.701-2.083-12.255-10.013-10.174-17.713c1.741-6.439,7.57-10.679,13.935-10.679c1.248,0,2.517,0.163,3.78,0.504
		c7.701,2.082,12.255,10.013,10.173,17.713C255.849,288.824,250.019,293.064,243.655,293.064 M205.242,248.499
		c-10.534,0-19.074-8.54-19.074-19.075c0-10.534,8.54-19.074,19.074-19.074s19.074,8.54,19.074,19.074
		C224.316,239.959,215.776,248.499,205.242,248.499 M263.837,222.428c-2.698,0-5.426-0.754-7.857-2.334
		c-6.69-4.346-8.588-13.292-4.242-19.982c2.767-4.259,7.399-6.577,12.125-6.577c2.698,0,5.426,0.755,7.857,2.334
		c6.69,4.346,8.588,13.292,4.242,19.982C273.196,220.11,268.563,222.428,263.837,222.428 M315.154,200.51
		c-4.607,0-8.934-2.839-10.609-7.417c-2.143-5.86,0.868-12.346,6.728-14.49c1.281-0.469,2.592-0.691,3.881-0.691
		c4.607,0,8.934,2.839,10.609,7.417c2.143,5.86-0.869,12.347-6.728,14.49C317.754,200.287,316.443,200.51,315.154,200.51
		 M217.645,67.768c2.631,25.694,0.648,55.198-11.898,84.813c4.211,0.15,8.321,2.132,11.047,5.766
		c4.79,6.38,3.499,15.434-2.881,20.223c-2.599,1.951-5.642,2.893-8.66,2.893c-4.389,0-8.725-1.993-11.564-5.774
		c-0.001-0.002-0.002-0.003-0.004-0.005l0,0c-18.947,30.21-28.04,60.197-29.3,88.291c0.66-0.092,1.334-0.141,2.018-0.141
		c0.135,0,0.271,0.002,0.407,0.006c7.975,0.222,14.26,6.866,14.038,14.839c-0.217,7.838-6.639,14.044-14.43,14.044
		c-0.136,0-0.272-0.002-0.409-0.005c-0.052-0.001-0.104-0.003-0.155-0.005c2.025,13.536,5.899,26.428,11.355,38.46
		c9.092-2.641,18.553-4.004,28.034-4.004c16.215,0,32.374,3.989,46.728,11.535L301.4,364.69c0.874,0.459,1.779,0.668,2.656,0.668
		c3.324,0,6.255-2.995,5.622-6.683l-9.439-55.04c-5.589-32.582,5.207-65.808,28.878-88.881l39.99-38.98
		c3.386-3.301,1.518-9.052-3.162-9.732l-55.264-8.03c-32.713-4.753-60.978-25.289-75.608-54.931L217.645,67.768"/>
	<path style="fill:#FDBD68;" d="M205.747,152.581c-3.268,7.715-7.254,15.438-12.061,23.103c0.001,0.002,0.002,0.003,0.004,0.005
		c2.838,3.781,7.174,5.774,11.564,5.774c3.018,0,6.061-0.942,8.66-2.893c6.38-4.789,7.671-13.843,2.881-20.223
		C214.067,154.713,209.958,152.731,205.747,152.581"/>
	<path style="fill:#FDBD68;" d="M315.153,177.911c-1.289,0-2.6,0.222-3.881,0.691c-5.86,2.144-8.87,8.63-6.728,14.49
		c1.676,4.578,6.002,7.417,10.609,7.417c1.289,0,2.6-0.223,3.881-0.691c5.859-2.143,8.871-8.63,6.728-14.49
		C324.087,180.75,319.76,177.91,315.153,177.911"/>
	<path style="fill:#FDBD68;" d="M263.863,193.534c-4.727,0-9.359,2.318-12.125,6.577c-4.346,6.69-2.447,15.636,4.242,19.982
		c2.431,1.58,5.159,2.334,7.857,2.334c4.726,0,9.359-2.317,12.125-6.576c4.346-6.69,2.447-15.636-4.242-19.982
		C269.289,194.289,266.561,193.534,263.863,193.534"/>
	<path style="fill:#FDBD68;" d="M277.256,310.381c-2.43,0-4.88,0.781-6.943,2.393c-4.917,3.839-5.792,10.937-1.952,15.855
		c2.228,2.854,5.552,4.345,8.912,4.345c2.43,0,4.88-0.781,6.944-2.393c4.917-3.839,5.792-10.938,1.952-15.856
		C283.94,311.872,280.616,310.38,277.256,310.381"/>
	<path style="fill:#FDBD68;" d="M243.637,264.168c-6.365,0-12.194,4.239-13.935,10.679c-2.081,7.701,2.474,15.631,10.174,17.713
		c1.262,0.341,2.53,0.504,3.778,0.504c6.365,0,12.194-4.241,13.935-10.679c2.082-7.701-2.472-15.631-10.173-17.713
		C246.154,264.331,244.885,264.168,243.637,264.168"/>
	<path style="fill:#FDBD68;" d="M166.403,263.834c-0.684,0-1.358,0.048-2.018,0.141c-0.441,9.835,0.077,19.438,1.469,28.738
		c0.051,0.002,0.104,0.004,0.155,0.005c0.137,0.003,0.273,0.005,0.409,0.005c7.791,0,14.213-6.206,14.43-14.044
		c0.222-7.974-6.063-14.618-14.038-14.839C166.674,263.836,166.538,263.834,166.403,263.834"/>
	<path style="fill:#FDBD68;" d="M205.242,210.35c-10.534,0-19.074,8.54-19.074,19.074c0,10.535,8.54,19.075,19.074,19.075
		s19.074-8.54,19.074-19.075C224.316,218.889,215.776,210.35,205.242,210.35"/>
</g>
<g>
</g>
<g>
</g>
<g>
</g>
<g>
</g>
<g>
</g>
<g>
</g>
<g>
</g>
<g>
</g>
<g>
</g>
<g>
</g>
<g>
</g>
<g>
</g>
<g>
</g>
<g>
</g>
<g>
</g>
</svg>
